<?xml version="1.0" encoding="UTF-8" standalone="no"?>
<!-- Created with Inkscape (http://www.inkscape.org/) -->

<svg
   xmlns:dc="http://purl.org/dc/elements/1.1/"
   xmlns:cc="http://creativecommons.org/ns#"
   xmlns:rdf="http://www.w3.org/1999/02/22-rdf-syntax-ns#"
   xmlns:svg="http://www.w3.org/2000/svg"
   xmlns="http://www.w3.org/2000/svg"
   xmlns:sodipodi="http://sodipodi.sourceforge.net/DTD/sodipodi-0.dtd"
   xmlns:inkscape="http://www.inkscape.org/namespaces/inkscape"
   width="106mm"
   height="97mm"
   version="1.1"
   viewBox="0 0 106 97"
   id="svg150"
   sodipodi:docname="tac-logo.svg"
   inkscape:version="0.92.3 (2405546, 2018-03-11)">
  <defs
     id="defs154" />
  <sodipodi:namedview
     pagecolor="#ffffff"
     bordercolor="#666666"
     borderopacity="1"
     objecttolerance="10"
     gridtolerance="10"
     guidetolerance="10"
     inkscape:pageopacity="0"
     inkscape:pageshadow="2"
     inkscape:window-width="1853"
     inkscape:window-height="1025"
     id="namedview152"
     showgrid="false"
     inkscape:zoom="1.2837629"
     inkscape:cx="209.88232"
     inkscape:cy="206.88791"
     inkscape:window-x="67"
     inkscape:window-y="27"
     inkscape:window-maximized="1"
     inkscape:current-layer="g148" />
  <metadata
     id="metadata110">
    <rdf:RDF>
      <cc:Work
         rdf:about="">
        <dc:format>image/svg+xml</dc:format>
        <dc:type
           rdf:resource="http://purl.org/dc/dcmitype/StillImage" />
        <dc:title></dc:title>
      </cc:Work>
    </rdf:RDF>
  </metadata>
  <g
     transform="translate(0,-200)"
     id="g148">
    <path
       d="m 46.459323,205.41447 -35.341,72.949 43.089,-18.899 z"
       id="path112"
       inkscape:connector-curvature="0"
       style="fill:#0099d7" />
    <path
       d="m 50.806323,204.46447 43.656003,67.091 -30.427003,17.954 z"
       id="path114"
       inkscape:connector-curvature="0"
       style="fill:#f6ff5c" />
    <path
       d="m 12.252323,282.89447 41.388,-17.009 3.7798,23.812 z"
       id="path116"
       inkscape:connector-curvature="0"
       style="fill:#ff0000" />
    <path
       id="text158"
       transform="matrix(0.26458332,0,0,0.26458332,0,174)"
       style="font-style:normal;font-weight:normal;font-size:10.58333302px;line-height:1.25;font-family:sans-serif;letter-spacing:0px;word-spacing:0px;fill:#0099d7;fill-opacity:1;stroke:none;stroke-width:1"
       d="m 249.62891,373.74609 c -0.37107,0.0127 -0.37501,0.0565 0.20898,0.15039 0.53832,0.0866 1.07759,0.15646 1.61914,0.21485 l -0.0625,-0.33008 c -0.68335,-0.02 -1.44707,-0.046 -1.76562,-0.0352 z M 7.8867188,392.36914 v 0.0898 c 0.019117,-0.0292 0.034658,-0.0615 0.054687,-0.0898 z m 13.7285152,4.98438 c -0.05621,0.1409 -0.04433,0.11289 -0.166015,0.39648 0.118616,-0.0823 0.237693,-0.16378 0.363281,-0.23633 -0.01241,-0.0235 -0.0246,-0.0469 -0.03711,-0.0703 -0.0487,-0.0293 -0.11012,-0.0603 -0.160157,-0.0898 z"
       inkscape:connector-curvature="0" />
  </g>
</svg>
